<?xml version="1.0" standalone="no"?>
<!DOCTYPE svg PUBLIC "-//W3C//DTD SVG 20010904//EN"
 "http://www.w3.org/TR/2001/REC-SVG-20010904/DTD/svg10.dtd">
<svg version="1.0" xmlns="http://www.w3.org/2000/svg"
 width="600.000000pt" height="600.000000pt" viewBox="0 0 600.000000 600.000000"
 preserveAspectRatio="xMidYMid meet">

<g transform="translate(0.000000,600.000000) scale(0.100000,-0.100000)"
fill="#000000" stroke="none">
<path d="M1900 4776 c0 -31 -17 -44 -76 -55 -35 -7 -55 -17 -71 -38 -91 -112
-321 -702 -309 -790 4 -28 3 -31 -2 -13 l-8 25 -17 -32 c-24 -46 -36 -49 -51
-13 -9 23 -12 65 -8 150 2 65 2 130 -2 144 -6 26 -7 26 -109 25 -56 0 -128 -4
-161 -8 -68 -8 -82 -22 -120 -118 -25 -60 -25 -62 -9 -125 9 -34 20 -66 26
-69 5 -4 50 -10 101 -14 108 -8 141 -22 196 -81 52 -57 52 -55 -49 -307 -42
-103 -53 -247 -51 -637 1 -162 -3 -349 -8 -415 -6 -66 -14 -249 -18 -407 -6
-260 -6 -289 10 -312 l16 -26 229 0 c298 0 275 -17 279 201 3 126 0 164 -10
171 -8 5 16 7 62 3 286 -23 448 -28 1120 -32 721 -4 1021 2 1420 32 36 2 57 2
48 -1 -16 -5 -18 -21 -18 -155 0 -156 9 -199 45 -213 9 -3 117 -6 240 -6 220
0 224 0 239 22 13 18 16 54 16 178 0 214 -22 673 -31 658 -5 -7 -6 124 -3 292
4 178 2 360 -4 436 -10 121 -14 141 -57 250 -88 222 -88 222 -15 288 52 47 67
52 170 60 47 4 92 10 101 12 11 3 22 28 33 68 14 56 14 69 2 104 -24 66 -55
121 -77 132 -11 7 -87 14 -169 17 l-148 6 -7 -44 c-3 -24 -5 -97 -3 -161 3
-98 0 -120 -14 -134 -15 -15 -18 -14 -41 22 -13 22 -30 64 -37 94 -31 133
-186 528 -255 650 -49 87 -63 99 -126 113 -48 11 -55 16 -64 45 -11 38 -38 40
-43 3 -4 -22 -6 -23 -65 -17 -373 36 -1616 36 -1984 0 -61 -6 -63 -5 -73 20
-12 33 -40 35 -40 2z m2165 -134 l160 -7 14 -30 c97 -199 199 -477 204 -553 3
-56 -28 -67 -188 -66 -223 0 -2311 1 -2480 0 -192 -1 -221 8 -218 65 4 78 165
504 216 573 11 14 64 17 427 24 487 8 1635 5 1865 -6z m492 -774 c-3 -8 -6 -5
-6 6 -1 11 2 17 5 13 3 -3 4 -12 1 -19z m-3100 -50 c-3 -8 -6 -5 -6 6 -1 11 2
17 5 13 3 -3 4 -12 1 -19z m3090 -10 c-3 -8 -6 -5 -6 6 -1 11 2 17 5 13 3 -3
4 -12 1 -19z m-361 -194 c15 -11 29 -25 31 -30 7 -20 -1157 -34 -1822 -22
-336 6 -612 13 -614 15 -10 8 39 46 70 53 19 5 546 7 1171 7 1131 -2 1137 -2
1164 -23z m-2745 -43 c67 -6 79 -4 79 9 1 13 2 13 10 -1 8 -14 37 -18 164 -24
l154 -7 27 -75 c14 -41 24 -77 21 -80 -3 -3 -87 -1 -186 6 -173 11 -181 11
-219 -9 -23 -11 -51 -18 -68 -15 -15 2 -45 7 -65 10 l-38 6 0 100 c0 98 1 100
21 94 12 -4 57 -10 100 -14z m3239 -81 l0 -99 -32 -5 c-18 -3 -49 -8 -68 -10
-25 -4 -45 0 -68 14 -32 20 -40 20 -218 9 -102 -6 -187 -10 -189 -7 -3 2 7 38
21 80 l25 76 157 7 c99 5 160 11 164 19 5 7 8 7 8 1 0 -11 167 -2 178 10 17
17 22 -5 22 -95z m-1670 5 c514 0 965 4 1003 8 37 4 67 4 67 -1 0 -13 -639
-32 -1070 -32 -437 0 -1090 19 -1090 32 0 5 35 5 78 1 42 -4 498 -8 1012 -8z
m-780 -56 c22 -16 58 -19 288 -25 164 -4 262 -3 262 2 0 6 -5 15 -12 22 -9 9
42 12 232 12 190 0 241 -3 232 -12 -7 -7 -12 -16 -12 -22 0 -5 98 -6 262 -2
227 6 267 10 293 25 23 14 60 20 163 24 72 4 132 3 132 -2 0 -4 -8 -15 -18
-24 -15 -14 -61 -18 -272 -27 -140 -5 -325 -10 -411 -10 -154 0 -157 0 -163
-22 -15 -59 -18 -58 132 -58 77 0 208 4 293 9 247 16 406 20 384 12 -11 -5
-94 -11 -185 -15 -91 -3 -282 -11 -425 -16 -174 -7 -284 -16 -332 -27 -68 -16
-78 -16 -145 0 -50 11 -157 20 -333 27 -539 21 -591 23 -610 31 -22 8 137 4
384 -12 85 -5 216 -9 293 -9 l138 0 0 24 c0 56 0 56 -169 56 -86 0 -271 5
-411 10 -211 9 -257 13 -272 27 -10 9 -18 20 -18 24 0 5 62 5 138 2 109 -5
142 -10 162 -24z m-368 -115 l66 -7 66 -201 c36 -110 75 -215 85 -232 18 -29
23 -31 97 -38 44 -3 246 -20 451 -36 l372 -30 318 25 c620 49 583 44 604 79
20 34 73 179 119 332 l31 101 67 7 c113 10 327 19 322 13 -3 -3 -66 -13 -140
-22 -74 -9 -145 -18 -156 -20 -22 -5 -40 -51 -104 -273 l-21 -73 23 -19 c13
-11 32 -22 43 -25 12 -4 124 1 250 9 283 20 295 20 295 2 0 -17 -8 -18 -306
-52 l-241 -28 -42 33 -41 32 -23 -26 c-21 -25 -30 -27 -207 -45 -102 -11 -321
-31 -488 -45 l-304 -26 -406 36 c-560 49 -562 49 -590 81 l-22 25 -41 -31
c-45 -37 -19 -37 -339 0 -248 29 -250 30 -250 46 0 18 27 18 290 -1 261 -19
260 -19 294 9 l29 24 -43 143 c-66 225 -46 202 -191 217 -188 20 -218 33 -64
27 72 -3 160 -8 197 -11z m400 -45 c25 -17 58 -20 380 -28 216 -6 492 -6 711
0 326 8 360 11 385 28 22 15 52 20 155 25 70 4 127 3 127 -1 0 -5 -6 -15 -13
-24 -44 -58 -1970 -58 -2014 0 -7 9 -13 20 -13 24 0 4 57 5 128 2 101 -6 132
-11 154 -26z m163 -119 c55 -5 314 -9 575 -9 261 0 520 4 575 9 134 12 421 24
415 17 -3 -3 -131 -13 -285 -23 -379 -25 -1035 -25 -1410 0 -148 9 -274 19
-280 22 -15 6 294 -6 410 -16z m-135 -49 l35 -26 675 0 675 0 35 26 c31 24 47
28 148 34 61 4 112 5 112 2 0 -4 -5 -17 -11 -30 -11 -23 -16 -24 -147 -30
-654 -31 -901 -32 -1497 -6 -232 10 -251 12 -267 31 -33 37 -23 41 95 33 100
-6 116 -10 147 -34z m30 -102 c184 -18 282 -21 680 -21 400 -1 495 2 680 21
222 21 267 24 259 16 -3 -2 -102 -15 -220 -27 -194 -21 -261 -23 -724 -23
-454 1 -532 3 -714 23 -112 12 -206 24 -209 27 -8 8 19 6 248 -16z m-19 -55
l26 -25 341 -11 c260 -9 421 -9 674 0 330 11 332 12 357 36 22 21 39 25 124
31 l99 8 -16 -32 c-13 -25 -23 -31 -49 -31 -17 0 -126 -7 -242 -15 -136 -10
-353 -15 -615 -15 -262 0 -479 5 -615 15 -115 8 -225 15 -242 15 -26 0 -36 6
-49 31 l-16 32 98 -7 c86 -6 102 -11 125 -32z m-898 -181 c-13 -2 -35 -2 -50
0 -16 2 -5 4 22 4 28 0 40 -2 28 -4z m3212 -3 c-33 -5 -163 -10 -290 -13
l-230 -6 220 9 c120 5 228 11 240 13 11 2 43 4 70 4 l50 0 -60 -7z m-2716 -16
c8 -7 -281 -2 -374 6 -53 4 5 5 140 2 127 -3 232 -6 234 -8z m2316 -220 l173
-176 119 7 c65 4 129 8 142 9 20 1 28 -7 39 -37 8 -20 13 -39 11 -42 -3 -2
-81 -13 -174 -23 l-170 -19 -189 188 -189 189 -977 0 -977 0 -185 -188 -185
-188 -174 18 c-95 11 -175 20 -176 22 -2 2 2 21 10 42 10 32 17 39 37 38 14
-1 78 -5 144 -9 l119 -7 173 176 173 176 1042 0 1041 0 173 -176z m-2812 79
c-13 -2 -35 -2 -50 0 -16 2 -5 4 22 4 28 0 40 -2 28 -4z m3212 -3 c-33 -4 -94
-7 -135 -7 l-75 1 85 6 c47 3 108 6 135 7 l50 0 -60 -7z m-2806 -16 c7 -6
-176 -2 -284 6 -68 5 -40 6 90 3 105 -3 192 -7 194 -9z m2534 -1 c-29 -2 -77
-2 -105 0 -29 2 -6 3 52 3 58 0 81 -1 53 -3z m-3140 -208 c3 -86 2 -108 -3
-65 -8 69 -13 206 -6 199 2 -2 6 -62 9 -134z m140 128 c-7 -2 -19 -2 -25 0 -7
3 -2 5 12 5 14 0 19 -2 13 -5z m3340 0 c-7 -2 -19 -2 -25 0 -7 3 -2 5 12 5 14
0 19 -2 13 -5z m-2964 -19 c7 -7 -210 -2 -289 6 -43 4 2 5 105 2 99 -3 182 -6
184 -8z m2894 9 c-18 -2 -48 -2 -65 0 -18 2 -4 4 32 4 36 0 50 -2 33 -4z
m-155 -10 c-32 -2 -86 -2 -120 0 -35 2 -9 3 57 3 66 0 94 -1 63 -3z m347 -128
c-4 -70 -9 -124 -12 -121 -2 2 -1 61 3 130 4 70 9 124 12 122 2 -3 1 -62 -3
-131z m-1765 -140 l5 -90 260 3 c301 3 285 -3 285 104 l0 68 29 0 29 0 3 -79
c2 -44 7 -82 11 -86 3 -4 131 -2 285 3 153 5 281 7 285 3 22 -20 -22 -30 -184
-45 -256 -23 -1838 -24 -2091 0 -94 8 -177 20 -184 26 -23 19 -3 28 55 23 31
-2 159 -7 283 -10 260 -7 239 -16 239 96 l0 69 29 0 29 0 4 -75 c2 -41 8 -79
13 -84 6 -6 123 -13 271 -17 305 -8 284 -17 284 111 l0 76 28 -3 c27 -3 27 -4
32 -93z m-1803 -106 c5 -4 24 -12 43 -18 l35 -11 -40 6 c-22 3 -44 10 -49 15
-5 5 -11 37 -12 71 l-3 63 9 -59 c6 -33 13 -63 17 -67z m3544 9 c-7 -19 -19
-27 -46 -32 -21 -4 -39 -5 -41 -3 -3 3 11 8 31 11 40 8 54 31 57 94 l1 37 4
-41 c2 -22 0 -52 -6 -66z m-3418 -45 c-7 -2 -21 -2 -30 0 -10 3 -4 5 12 5 17
0 24 -2 18 -5z m3310 0 c-7 -2 -21 -2 -30 0 -10 3 -4 5 12 5 17 0 24 -2 18 -5z
m-3250 -10 c-7 -2 -21 -2 -30 0 -10 3 -4 5 12 5 17 0 24 -2 18 -5z m3172 -3
c-16 -4 -46 -8 -65 -7 l-35 0 40 7 c22 4 51 7 65 7 22 1 22 0 -5 -7z m-3107
-7 c-10 -2 -26 -2 -35 0 -10 3 -2 5 17 5 19 0 27 -2 18 -5z m70 -10 c-10 -2
-26 -2 -35 0 -10 3 -2 5 17 5 19 0 27 -2 18 -5z m2920 0 c-10 -2 -26 -2 -35 0
-10 3 -2 5 17 5 19 0 27 -2 18 -5z m-2850 -10 c-10 -2 -26 -2 -35 0 -10 3 -2
5 17 5 19 0 27 -2 18 -5z m2780 0 c-10 -2 -26 -2 -35 0 -10 3 -2 5 17 5 19 0
27 -2 18 -5z"/>
</g>
</svg>
